<svg width="301" height="42" viewBox="0 0 301 42" fill="none" xmlns="http://www.w3.org/2000/svg">
<path d="M225.513 27.3707C226.336 26.9474 227.096 26.1795 227.79 25.0689L231.955 27.1308C231.088 28.8561 229.807 30.1561 228.115 31.0328C226.422 31.9096 224.593 32.3489 222.627 32.3489C221.182 32.3489 219.814 32.1071 218.528 31.6254C217.242 31.1437 216.113 30.4423 215.144 29.5212C214.175 28.6001 213.409 27.4896 212.845 26.1875C212.281 24.8875 212 23.4021 212 21.7373C212 20.2761 212.261 18.9015 212.781 17.6156C213.302 16.3297 214.026 15.2111 214.951 14.2618C215.876 13.3125 216.997 12.5668 218.312 12.0246C219.628 11.4844 221.068 11.2144 222.629 11.2144C224.22 11.2144 225.658 11.4925 226.946 12.0468C228.232 12.603 229.333 13.3689 230.244 14.3485C231.155 15.328 231.849 16.5051 232.326 17.8796C232.802 19.2542 233.042 20.7739 233.042 22.4407V23.2308H218.117C218.233 24.6336 218.747 25.7824 219.656 26.6733C220.568 27.5641 221.658 28.0116 222.932 28.0116C223.83 28.0055 224.689 27.7939 225.513 27.3707ZM219.634 16.7348C218.853 17.4362 218.362 18.4016 218.159 19.6291H226.878C226.647 18.2263 226.127 17.2165 225.317 16.6038C224.508 15.9891 223.596 15.6827 222.583 15.6827C221.399 15.6827 220.416 16.0334 219.634 16.7348Z" fill="#0052CC"/>
<path d="M234.861 17.3053C235.353 15.9892 236.011 14.8787 236.835 13.9717C237.658 13.0647 238.627 12.3774 239.742 11.9098C240.856 11.4422 242.049 11.2084 243.321 11.2084C244.535 11.2084 245.664 11.4503 246.705 11.932C247.745 12.4137 248.643 13.0647 249.394 13.883L249.482 13.8387V0.419434H255.556V31.8613H249.873L249.699 29.6684L249.612 29.6241C248.946 30.3557 248.078 30.9906 247.01 31.5308C245.939 32.0709 244.755 32.341 243.453 32.341C242.208 32.341 241.024 32.1153 239.895 31.6618C238.767 31.2083 237.778 30.5291 236.924 29.6221C236.071 28.7151 235.391 27.6126 234.885 26.3106C234.378 25.0106 234.125 23.497 234.125 21.7717C234.123 20.1129 234.368 18.6215 234.861 17.3053ZM241.562 25.9881C242.416 27.0402 243.536 27.5663 244.924 27.5663C246.312 27.5663 247.418 27.0322 248.242 25.966C249.065 24.8998 249.478 23.4889 249.478 21.7334C249.478 19.9799 249.051 18.5832 248.198 17.5452C247.345 16.5072 246.254 15.9892 244.922 15.9892C243.447 15.9892 242.304 16.5233 241.494 17.5895C240.685 18.6557 240.28 20.0384 240.28 21.7334C240.284 23.5171 240.711 24.936 241.562 25.9881Z" fill="#0052CC"/>
<path d="M269.675 36.4042C270.297 36.0978 270.796 35.6726 271.172 35.1324C271.549 34.5923 271.816 33.9634 271.976 33.2459C272.135 32.5304 272.215 31.7625 272.215 30.9442V29.9365C272.187 29.9365 272.165 29.9284 272.149 29.9143C272.135 29.9002 272.114 29.8921 272.084 29.8921C271.448 30.5351 270.624 31.1054 269.611 31.6033C268.598 32.1011 267.472 32.349 266.227 32.349C264.955 32.349 263.755 32.1233 262.626 31.6698C261.498 31.2163 260.515 30.5512 259.677 29.6744C258.838 28.7977 258.166 27.7013 257.66 26.3851C257.153 25.069 256.9 23.5493 256.9 21.824C256.9 20.1572 257.139 18.6738 257.616 17.3738C258.092 16.0738 258.744 14.9612 259.568 14.0402C260.391 13.1191 261.346 12.4177 262.431 11.936C263.516 11.4543 264.664 11.2124 265.881 11.2124C267.298 11.2124 268.534 11.4744 269.589 12.0025C270.644 12.5285 271.577 13.2299 272.387 14.1067H272.474L272.604 11.6941H278.287V29.1464C278.287 30.3738 278.259 31.3392 278.199 32.0406C278.141 32.742 278.012 33.4596 277.808 34.1892C277.2 36.4405 276.03 38.2161 274.295 39.5182C272.56 40.8202 270.377 41.4692 267.745 41.4692C266.531 41.4692 265.432 41.3523 264.449 41.1185C263.466 40.8847 262.577 40.5844 261.781 40.2196C260.985 39.8548 260.284 39.4375 259.677 38.9699C259.069 38.5024 258.549 38.0489 258.116 37.6115L261.065 33.9715C261.933 34.9067 262.945 35.6242 264.102 36.12C265.258 36.6179 266.343 36.8658 267.356 36.8658C268.279 36.8637 269.053 36.7106 269.675 36.4042ZM264.295 26.0103C265.149 27.0482 266.269 27.5662 267.657 27.5662C269.045 27.5662 270.151 27.0321 270.977 25.9659C271.802 24.8997 272.213 23.4888 272.213 21.7333C272.213 19.9799 271.787 18.5831 270.933 17.5451C270.08 16.5071 268.989 15.9892 267.657 15.9892C266.182 15.9892 265.039 16.5293 264.23 17.6116C263.42 18.694 263.015 20.0827 263.015 21.7777C263.015 23.5614 263.442 24.9723 264.295 26.0103Z" fill="#0052CC"/>
<path d="M292.971 27.3707C293.795 26.9474 294.554 26.1795 295.248 25.0689L299.414 27.1308C298.546 28.8561 297.266 30.1561 295.573 31.0328C293.88 31.9096 292.052 32.3489 290.086 32.3489C288.64 32.3489 287.273 32.1071 285.986 31.6254C284.7 31.1437 283.572 30.4423 282.603 29.5212C281.634 28.6001 280.868 27.4896 280.304 26.1875C279.74 24.8875 279.458 23.4021 279.458 21.7373C279.458 20.2761 279.718 18.9015 280.24 17.6156C280.76 16.3297 281.484 15.2111 282.409 14.2618C283.335 13.3125 284.455 12.5668 285.771 12.0246C287.087 11.4844 288.527 11.2144 290.088 11.2144C291.679 11.2144 293.117 11.4925 294.405 12.0468C295.691 12.603 296.792 13.3689 297.703 14.3485C298.614 15.328 299.308 16.5051 299.784 17.8796C300.261 19.2542 300.5 20.7739 300.5 22.4407V23.2308H285.576C285.691 24.6336 286.206 25.7824 287.115 26.6733C288.026 27.5641 289.119 28.0116 290.391 28.0116C291.286 28.0055 292.146 27.7939 292.971 27.3707ZM287.093 16.7348C286.311 17.4362 285.821 18.4016 285.618 19.6291H294.337C294.106 18.2263 293.585 17.2165 292.776 16.6038C291.966 15.9891 291.055 15.6827 290.042 15.6827C288.856 15.6827 287.873 16.0334 287.093 16.7348Z" fill="#0052CC"/>
<path d="M103.87 28.2739C103.505 29.0539 102.961 29.7452 102.233 30.3478C101.505 30.9505 100.602 31.4362 99.5251 31.805C98.4484 32.1739 97.2101 32.3573 95.8144 32.3573C94.7955 32.3573 93.8424 32.2545 92.9551 32.0489C92.0678 31.8433 91.2523 31.5773 90.5106 31.2548C89.7688 30.9303 89.1128 30.5715 88.5466 30.1725C87.9783 29.7754 87.5057 29.3703 87.1269 28.9591L90.052 25.2949C90.8675 26.1475 91.7767 26.8187 92.7817 27.3024C93.7866 27.7881 94.7975 28.03 95.8164 28.03C96.6598 28.03 97.3078 27.8526 97.7585 27.4999C98.2091 27.1472 98.4344 26.734 98.4344 26.2644C98.4344 25.6456 98.0855 25.176 97.3856 24.8515C97.0646 24.6742 96.7097 24.527 96.3149 24.4101C95.9221 24.2932 95.5213 24.1602 95.1145 24.0131L93.7607 23.616C93.1485 23.4387 92.6321 23.2633 92.2114 23.086C91.7887 22.9086 91.3899 22.7171 91.0111 22.5115C89.9044 21.923 89.1049 21.2539 88.6104 20.5041C88.1159 19.7543 87.8686 18.7607 87.8686 17.5252C87.8686 16.7311 88.0501 15.9511 88.415 15.1852C88.7799 14.4193 89.3102 13.728 90.0081 13.1112C90.706 12.4945 91.5654 12.0007 92.5843 11.6318C93.6031 11.263 94.7816 11.0796 96.1215 11.0796C97.1703 11.0796 98.1014 11.1824 98.9169 11.388C99.7325 11.5935 100.452 11.8435 101.078 12.1377C101.704 12.432 102.251 12.7625 102.715 13.1314C103.182 13.5002 103.589 13.8308 103.938 14.125L101.013 17.6118C100.43 17.0233 99.6886 16.5094 98.7853 16.068C97.8821 15.6266 96.9669 15.4069 96.0337 15.4069C95.3359 15.4069 94.7536 15.5621 94.2871 15.8704C93.8205 16.1788 93.5892 16.5839 93.5892 17.0838C93.5892 17.4667 93.7427 17.7832 94.0478 18.0331C94.3529 18.283 94.7098 18.4825 95.1185 18.6297C95.4974 18.7768 95.8822 18.9159 96.275 19.0489C96.6678 19.1819 97.1124 19.321 97.6069 19.4681L99.0047 19.9095C99.7624 20.1453 100.518 20.4618 101.276 20.8588C102.033 21.2559 102.687 21.7638 103.24 22.3805C104.025 23.2633 104.418 24.4404 104.418 25.9117C104.416 26.7058 104.235 27.4939 103.87 28.2739Z" fill="#0052CC"/>
<path d="M105.29 17.4384C105.815 16.1444 106.557 15.0258 107.518 14.0846C108.479 13.1433 109.635 12.4077 110.989 11.8776C112.343 11.3475 113.834 11.0835 115.465 11.0835C117.096 11.0835 118.58 11.3475 119.92 11.8776C121.26 12.4077 122.408 13.1433 123.369 14.0846C124.33 15.0258 125.072 16.1444 125.597 17.4384C126.121 18.7323 126.382 20.1452 126.382 21.675C126.382 23.2048 126.121 24.6257 125.597 25.9338C125.072 27.2438 124.33 28.3685 123.369 29.3097C122.408 30.251 121.26 30.9947 119.92 31.5389C118.58 32.0831 117.096 32.3551 115.465 32.3551C113.834 32.3551 112.343 32.0831 110.989 31.5389C109.635 30.9947 108.479 30.251 107.518 29.3097C106.557 28.3685 105.815 27.2418 105.29 25.9338C104.766 24.6237 104.505 23.2048 104.505 21.675C104.505 20.1452 104.766 18.7323 105.29 17.4384ZM118.957 25.8894C119.8 24.7849 120.223 23.3801 120.223 21.675C120.223 19.9679 119.8 18.5772 118.957 17.5049C118.113 16.4306 116.949 15.8945 115.463 15.8945C113.978 15.8945 112.808 16.4306 111.948 17.5049C111.089 18.5792 110.66 19.9699 110.66 21.675C110.66 23.3821 111.089 24.7869 111.948 25.8894C112.808 26.9919 113.978 27.5441 115.463 27.5441C116.949 27.5462 118.113 26.9939 118.957 25.8894Z" fill="#0052CC"/>
<path d="M129.917 30.0838C128.258 28.5682 127.429 26.3249 127.429 23.352V11.5674H133.586V23.6161C133.586 24.9403 133.885 25.9258 134.481 26.5728C135.077 27.2198 135.901 27.5443 136.948 27.5443C137.937 27.5443 138.76 27.242 139.414 26.6393C140.068 26.0367 140.397 25.0289 140.397 23.6161V11.5674H146.554V23.3077C146.554 24.8959 146.285 26.2644 145.747 27.4133C145.208 28.5601 144.503 29.5034 143.629 30.239C142.756 30.9747 141.759 31.5108 140.638 31.8494C139.518 32.188 138.375 32.3573 137.211 32.3573C134.007 32.3573 131.576 31.5995 129.917 30.0838Z" fill="#0052CC"/>
<path d="M159.15 16.8197C158.612 16.7028 158.139 16.6423 157.73 16.6423C156.391 16.6423 155.423 17.1139 154.827 18.0552C154.231 18.9964 153.932 20.2178 153.932 21.7194V31.8715H147.775V11.5673H153.539L153.671 14.0826H153.759C154.574 13.0527 155.439 12.2949 156.357 11.8091C157.274 11.3234 158.197 11.0815 159.13 11.0815C159.655 11.0815 160.141 11.14 160.594 11.2589C161.044 11.3758 161.475 11.5391 161.882 11.7446L160.747 17.3054C160.221 17.0998 159.688 16.9386 159.15 16.8197Z" fill="#0052CC"/>
<path d="M167.425 24.2347C167.686 24.9704 168.029 25.5811 168.452 26.0668C168.875 26.5526 169.369 26.9194 169.937 27.1693C170.506 27.4192 171.094 27.5442 171.706 27.5442C172.695 27.5442 173.503 27.3305 174.129 26.9033C174.755 26.476 175.403 25.7343 176.073 24.6741L180.352 27.1895C179.363 28.8664 178.103 30.1462 176.575 31.029C175.048 31.9118 173.351 32.3532 171.489 32.3532C170.091 32.3532 168.753 32.1033 167.471 31.6034C166.191 31.1036 165.062 30.3901 164.087 29.4629C163.112 28.5358 162.333 27.4172 161.75 26.1092C161.168 24.7991 160.877 23.3217 160.877 21.673C160.877 20.0243 161.168 18.547 161.75 17.2369C162.333 15.9268 163.112 14.8163 164.087 13.9053C165.062 12.9922 166.191 12.2949 167.471 11.8091C168.751 11.3234 170.091 11.0815 171.489 11.0815C173.351 11.0815 175.048 11.5229 176.575 12.4057C178.103 13.2885 179.363 14.5684 180.352 16.2453L176.073 18.7606C175.694 18.1136 175.164 17.4727 174.48 16.8398C173.796 16.207 172.871 15.8905 171.706 15.8905C170.308 15.8905 169.18 16.4267 168.322 17.5009C167.463 18.5752 167.034 19.9659 167.034 21.671C167.032 22.6465 167.162 23.4991 167.425 24.2347Z" fill="#0052CC"/>
<path d="M193.516 27.3466C194.345 26.9193 195.109 26.1474 195.809 25.0288L200 27.1027C199.127 28.8381 197.838 30.1482 196.136 31.031C194.433 31.9138 192.592 32.3551 190.612 32.3551C189.157 32.3551 187.781 32.1133 186.487 31.6276C185.191 31.1418 184.056 30.4364 183.081 29.5093C182.106 28.5821 181.335 27.4635 180.767 26.1555C180.198 24.8454 179.915 23.3519 179.915 21.675C179.915 20.2037 180.176 18.821 180.701 17.5271C181.225 16.2331 181.953 15.1065 182.884 14.1511C183.815 13.1958 184.944 12.444 186.268 11.8998C187.592 11.3556 189.041 11.0835 190.612 11.0835C192.214 11.0835 193.661 11.3637 194.957 11.922C196.253 12.4802 197.358 13.2542 198.275 14.2398C199.192 15.2254 199.89 16.4105 200.371 17.7931C200.851 19.1758 201.091 20.7055 201.091 22.3824V23.1765H186.07C186.186 24.5894 186.704 25.7443 187.62 26.6412C188.535 27.5381 189.635 27.9876 190.916 27.9876C191.819 27.9876 192.686 27.7739 193.516 27.3466ZM187.598 16.6443C186.812 17.3497 186.318 18.3212 186.112 19.5567H194.889C194.656 18.1438 194.132 17.13 193.318 16.5113C192.503 15.8925 191.585 15.5841 190.567 15.5841C189.374 15.5841 188.385 15.9368 187.598 16.6443Z" fill="#0052CC"/>
<path d="M87.3453 22.3766C87.3453 20.6997 87.1061 19.17 86.6255 17.7893C86.145 16.4067 85.4471 15.2236 84.5299 14.238C83.6127 13.2524 82.5081 12.4805 81.214 11.9222C79.92 11.3639 78.4724 11.0837 76.8713 11.0837C75.3001 11.0837 73.8525 11.3558 72.5285 11.9C71.386 12.3696 70.391 12.9924 69.5416 13.7684L68.2635 20.0326L66.4231 19.309C66.2616 20.0689 66.1799 20.8549 66.1799 21.6692C66.1799 23.3461 66.463 24.8376 67.0313 26.1476C67.5995 27.4557 68.3692 28.5743 69.3442 29.5014C70.3193 30.4286 71.4538 31.134 72.7478 31.6197C74.0419 32.1055 75.4177 32.3473 76.8733 32.3473C78.8512 32.3473 80.6916 31.9059 82.3944 31.0231C84.0972 30.1404 85.3833 28.8323 86.2567 27.0969L82.0674 25.023C81.3696 26.1416 80.6059 26.9135 79.7764 27.3388C78.9469 27.7661 78.0816 27.9777 77.1803 27.9777C75.9002 27.9777 74.8016 27.5303 73.8844 26.6314C72.9672 25.7345 72.4508 24.5796 72.3351 23.1687H87.3493V22.3766H87.3453ZM72.375 19.5529C72.5784 18.3174 73.0729 17.3459 73.8585 16.6405C74.6441 15.9351 75.633 15.5823 76.8254 15.5823C77.8443 15.5823 78.7595 15.8907 79.575 16.5095C80.3905 17.1262 80.9129 18.142 81.1462 19.5529H72.375Z" fill="#0052CC"/>
<path d="M66.1254 16.8188C65.5871 16.7019 65.1145 16.6415 64.7078 16.6415C63.3698 16.6415 62.4008 17.1111 61.8046 18.0523C61.2084 18.9936 60.9093 20.215 60.9093 21.7145V31.8605H54.7561V11.5684H60.5165L60.6481 14.0838H60.7359C61.5514 13.0539 62.4167 12.296 63.3339 11.8123C64.2511 11.3266 65.1743 11.0847 66.1055 11.0847C66.6299 11.0847 67.1164 11.1432 67.567 11.2621C68.0177 11.379 68.4464 11.5422 68.8551 11.7478L67.7206 17.3066C67.1942 17.097 66.6638 16.9357 66.1254 16.8188Z" fill="#0052CC"/>
<path d="M43.4747 0H0.499756V41.5275H43.4747V0Z" fill="#0052CC"/>
<path d="M34.7763 17.1059C34.7763 15.7898 34.5869 14.5905 34.21 13.5042C33.8332 12.4198 33.2849 11.4907 32.5651 10.7167C31.8452 9.94279 30.9779 9.33814 29.961 8.89876C28.9441 8.45938 27.8096 8.2417 26.5534 8.2417C25.3211 8.2417 24.1846 8.45534 23.1458 8.88263C22.2485 9.25147 21.4689 9.74124 20.8009 10.3499L19.798 15.2677L18.3544 14.7014C18.2288 15.298 18.163 15.9147 18.163 16.5536C18.163 17.8698 18.3863 19.0408 18.8309 20.0687C19.2756 21.0966 19.8817 21.9733 20.6474 22.7009C21.4131 23.4285 22.3023 23.9828 23.3192 24.3637C24.3361 24.7447 25.4149 24.9341 26.5574 24.9341C28.1106 24.9341 29.5542 24.5874 30.8902 23.8961C32.2261 23.2028 33.237 22.1769 33.9209 20.8144L30.6329 19.1879C30.0846 20.0647 29.4864 20.6713 28.8344 21.0059C28.1844 21.3405 27.5045 21.5078 26.7966 21.5078C25.7917 21.5078 24.9303 21.155 24.2105 20.4516C23.4907 19.7482 23.086 18.8412 22.9942 17.7327H34.7783V17.1059H34.7763ZM23.0261 14.8908C23.1857 13.9214 23.5745 13.1595 24.1906 12.6053C24.8067 12.051 25.5843 11.7749 26.5195 11.7749C27.319 11.7749 28.0389 12.0167 28.6769 12.5025C29.317 12.9882 29.7277 13.7843 29.9091 14.8908H23.0261Z" fill="white"/>
<path d="M18.1208 12.7443C17.698 12.6516 17.3272 12.6053 17.0081 12.6053C15.9573 12.6053 15.1977 12.9741 14.7311 13.7138C14.2625 14.4535 14.0292 15.4109 14.0292 16.5879V24.5512H9.19995V8.62263H13.7222L13.8258 10.5958H13.8936C14.5337 9.78759 15.2116 9.19302 15.9314 8.81209C16.6512 8.43116 17.375 8.2417 18.1068 8.2417C18.5175 8.2417 18.9004 8.28806 19.2553 8.38077C19.6082 8.47348 19.9452 8.60046 20.2662 8.7617L19.3749 13.1253C18.9602 12.964 18.5435 12.8371 18.1208 12.7443Z" fill="white"/>
<path d="M34.9467 33.2866V28.8867L9.03167 28.8867V33.2866L34.9467 33.2866Z" fill="white"/>
</svg>
